/* XPM */
static const char * app_icon_xpm[] = {
"32 32 4 1",
". c None",
"a c #2D6CDF",
"b c #111111",
"c c #FFFFFF",
"................................",
"................................",
"................................",
"................................",
"............aaaaaa..............",
"..........aaaaaaaaaa............",
".........aaaaaaaaaaaa...........",
"........aaaaaaaa.aaaaa..........",
".......aaaaaaaa...aaaaa.........",
"......aaaaaaaa.....aaaaa........",
".....aaaaaaaaaa...aaaaaaa.......",
"....aaaaaaaaaaaa.aaaaaaaa.......",
"....aaaaaaaaaaaasssaaaaaa.......",
"....aaaaaaaaaaaaaa......a.......",
"....aaaaaaaaaaaa................",
"....aaaaaaaaaaa.................",
"....aaaaaaaaaaaa................",
"....aaaaaaaaaaaaaa...aa.........",
".....aaaaaaaaaaaaaaaaa..........",
"......aaaaaaaaaaaaaaa...........",
".......aaaaaaaaaaaaa............",
"........aaaaaaaaaaa.............",
".........aaaaaaaaa..............",
"..........aaaaaaa...............",
"...........aaaaa................",
"............aaa.................",
"................................",
"................................",
"................................",
"................................",
"................................",
"................................"
};
